<svg xmlns="http://www.w3.org/2000/svg" width="500" height="500" viewBox="0 0 500 500" version="1.1"><path d="M 183.701 110.020 C 133.276 110.438, 101.531 111.069, 100.934 111.666 C 100.345 112.255, 100.071 123.167, 100.233 139.567 L 100.500 166.500 200.839 167 L 301.177 167.500 303.089 169.861 C 304.140 171.159, 305 173.144, 305 174.271 C 305 176.766, 286.604 212.746, 259.793 262.688 C 248.813 283.141, 239.986 300.691, 240.178 301.688 C 240.503 303.375, 242.357 303.518, 267.094 303.766 C 291.445 304.010, 293.787 303.885, 295.175 302.266 C 296.007 301.295, 319.282 258.700, 346.897 207.612 C 383.287 140.290, 397.023 114.005, 396.803 112.112 L 396.500 109.500 331 109.421 C 294.975 109.378, 228.690 109.648, 183.701 110.020 M 203.641 199.750 C 202.328 201.813, 179.099 244.565, 152.020 294.755 C 111.252 370.318, 102.898 386.458, 103.440 388.615 L 104.093 391.220 208.988 390.476 C 266.679 390.067, 333.146 389.455, 356.691 389.116 L 399.500 388.500 399.766 360.750 L 400.032 333 300.439 333 L 200.846 333 197.923 330.077 C 196.315 328.469, 195 326.481, 195 325.658 C 195 323.695, 223.430 268.576, 244.323 230.033 C 257.349 206.003, 260.637 199.190, 259.884 197.783 C 259.005 196.141, 256.834 196, 232.479 196 L 206.028 196 203.641 199.750" stroke="none" fill="#5c15eb" fill-rule="evenodd"/><path d="M 62 0.640 C 55.148 1.696, 49.381 3.796, 38.108 9.337 C 32.106 12.288, 21.509 21.356, 15.840 28.393 C 10.637 34.852, 5.221 45.348, 2.369 54.500 C 0.571 60.271, 0.500 67.718, 0.500 250 L 0.500 439.500 2.828 446.500 C 11.286 471.930, 26.985 487.757, 53.111 497.193 L 59.500 499.500 246 499.787 C 379.107 499.992, 434.358 499.757, 438.990 498.966 C 446.565 497.673, 458.377 493.010, 465.522 488.492 C 481.223 478.565, 493.907 460.776, 497.959 443 C 498.649 439.975, 499.615 436.719, 500.107 435.764 C 501.230 433.580, 501.311 62.690, 500.188 63.384 C 499.742 63.660, 498.838 61.281, 498.181 58.097 C 495.343 44.358, 487.274 30.173, 476.759 20.437 C 471.338 15.419, 461.088 8, 459.575 8 C 459.289 8, 456.680 6.919, 453.777 5.597 C 450.875 4.276, 446.925 2.588, 445 1.847 C 442.114 0.736, 408.429 0.478, 253 0.377 C 149.325 0.310, 63.375 0.428, 62 0.640 M 0.490 250 C 0.490 352.575, 0.607 394.537, 0.750 343.250 C 0.893 291.962, 0.893 208.037, 0.750 156.750 C 0.607 105.462, 0.490 147.425, 0.490 250 M 183.701 110.020 C 133.276 110.438, 101.531 111.069, 100.934 111.666 C 100.345 112.255, 100.071 123.167, 100.233 139.567 L 100.500 166.500 200.839 167 L 301.177 167.500 303.089 169.861 C 304.140 171.159, 305 173.144, 305 174.271 C 305 176.766, 286.604 212.746, 259.793 262.688 C 248.813 283.141, 239.986 300.691, 240.178 301.688 C 240.503 303.375, 242.357 303.518, 267.094 303.766 C 291.445 304.010, 293.787 303.885, 295.175 302.266 C 296.007 301.295, 319.282 258.700, 346.897 207.612 C 383.287 140.290, 397.023 114.005, 396.803 112.112 L 396.500 109.500 331 109.421 C 294.975 109.378, 228.690 109.648, 183.701 110.020 M 203.641 199.750 C 202.328 201.813, 179.099 244.565, 152.020 294.755 C 111.252 370.318, 102.898 386.458, 103.440 388.615 L 104.093 391.220 208.988 390.476 C 266.679 390.067, 333.146 389.455, 356.691 389.116 L 399.500 388.500 399.766 360.750 L 400.032 333 300.439 333 L 200.846 333 197.923 330.077 C 196.315 328.469, 195 326.481, 195 325.658 C 195 323.695, 223.430 268.576, 244.323 230.033 C 257.349 206.003, 260.637 199.190, 259.884 197.783 C 259.005 196.141, 256.834 196, 232.479 196 L 206.028 196 203.641 199.750" stroke="none" fill="#becb5b" fill-rule="evenodd"/></svg>